<svg width="512" height="512" viewBox="0 0 512 512" fill="none" xmlns="http://www.w3.org/2000/svg">
  <rect width="512" height="512" rx="100" fill="#121B3E"/>
  <path d="M256 135C190.11 135 137 188.11 137 254C137 319.89 190.11 373 256 373C321.89 373 375 319.89 375 254C375 188.11 321.89 135 256 135ZM256 305C228.38 305 206 282.62 206 255C206 227.38 228.38 205 256 205C283.62 205 306 227.38 306 255C306 282.62 283.62 305 256 305Z" fill="#3D5AF1"/>
  <path d="M256 177C213.49 177 179 211.49 179 254C179 296.51 213.49 331 256 331C298.51 331 333 296.51 333 254C333 211.49 298.51 177 256 177ZM256 293C234.4 293 217 275.6 217 254C217 232.4 234.4 215 256 215C277.6 215 295 232.4 295 254C295 275.6 277.6 293 256 293Z" fill="#F8F9FC"/>
</svg>
